<svg xmlns="http://www.w3.org/2000/svg" width="900" height="650" viewBox="0 0 900 650">
<style>
text { font-family: Inter, Arial, sans-serif; fill: #23313d; }
.label { font-size: 17px; font-weight: 700; }
.small { font-size: 13px; }
</style>
<rect width="900" height="650" fill="#f7f9fb" />
<rect x="40" y="40" width="820" height="560" rx="8" fill="#ffffff" stroke="#d8e0e8" />
<text x="70.00" y="80.00" class="label">3R planar robot - top view</text>
<text x="70.00" y="390.00" class="label">Side view: raised middle link and pen on writing surface</text>
<circle cx="170" cy="260" r="375.00" fill="none" stroke="#d9e6ef" stroke-dasharray="8 8" />
<line x1="70" y1="260" x2="820" y2="260" stroke="#edf2f6" />
<line x1="170" y1="80" x2="170" y2="350" stroke="#edf2f6" />
<polyline points="170.00,260.00 284.68,179.70 390.93,208.17 499.19,145.67" fill="none" stroke="#1f6feb" stroke-width="18" stroke-linecap="round" stroke-linejoin="round" />
<polyline points="170.00,260.00 284.68,179.70 390.93,208.17 499.19,145.67" fill="none" stroke="#93c5fd" stroke-width="6" stroke-linecap="round" stroke-linejoin="round" />
<polyline points="499.19,145.67 499.19,145.67" fill="none" stroke="#263238" stroke-width="5" stroke-linecap="round" />
<circle cx="170" cy="260" r="18" fill="#334155" />
<circle cx="170" cy="260" r="7" fill="#f8fafc" />
<rect x="70" y="555" width="750" height="16" fill="#f8fafc" stroke="#d8e0e8" />
<line x1="70" y1="560" x2="820" y2="560" stroke="#b8c4d0" stroke-width="2" />
<polyline points="170.00,505.00 284.68,505.00" fill="none" stroke="#1f6feb" stroke-width="16" stroke-linecap="round" />
<polyline points="284.68,505.00 390.93,450.00" fill="none" stroke="#f59e0b" stroke-width="16" stroke-linecap="round" />
<polyline points="390.93,450.00 499.19,505.00" fill="none" stroke="#1f6feb" stroke-width="16" stroke-linecap="round" />
<polyline points="170.00,505.00 284.68,505.00 390.93,450.00 499.19,505.00" fill="none" stroke="#fef3c7" stroke-width="5" stroke-linecap="round" stroke-linejoin="round" />
<polyline points="499.19,505.00 499.19,560.00" fill="none" stroke="#263238" stroke-width="6" stroke-linecap="round" />
<text x="511.19" y="544.00" class="small">pen</text>
<text x="70.00" y="590.00" class="small">white writing surface</text>
<text x="560.00" y="104.00" class="small">joint angles: 35 deg, -50 deg, 45 deg</text>
<text x="560.00" y="126.00" class="small">pen mount: x=329.2, y=114.3, z=55.0</text>
<text x="560.00" y="148.00" class="small">pen tip: x=329.2, y=114.3, z=0.0</text>
<text x="560.00" y="170.00" class="small">workspace x=[0.0, 329.2], y=[0.0, 114.3]</text>
<circle cx="170.00" cy="260.00" r="10.0" fill="#334155" stroke="#334155" stroke-width="3" />
<text x="182.00" y="248.00" class="small">J0</text>
<circle cx="284.68" cy="179.70" r="10.0" fill="#f8fafc" stroke="#0f172a" stroke-width="3" />
<text x="296.68" y="167.70" class="small">J1</text>
<circle cx="390.93" cy="208.17" r="10.0" fill="#f8fafc" stroke="#0f172a" stroke-width="3" />
<text x="402.93" y="196.17" class="small">J2</text>
<circle cx="499.19" cy="145.67" r="10.0" fill="#f8fafc" stroke="#0f172a" stroke-width="3" />
<text x="511.19" y="133.67" class="small">J3</text>
<circle cx="170.00" cy="505.00" r="8.0" fill="#334155" stroke="#334155" stroke-width="3" />
<circle cx="284.68" cy="505.00" r="8.0" fill="#f8fafc" stroke="#0f172a" stroke-width="3" />
<circle cx="390.93" cy="450.00" r="8.0" fill="#f8fafc" stroke="#0f172a" stroke-width="3" />
<circle cx="499.19" cy="505.00" r="8.0" fill="#f8fafc" stroke="#0f172a" stroke-width="3" />
</svg>