<svg xmlns="http://www.w3.org/2000/svg" width="640" height="640" viewBox="0 0 640 640">
<rect width="640" height="640" fill="#ffffff"/>
<line x1="40" y1="320" x2="600" y2="320" stroke="#e5e7eb"/>
<line x1="80" y1="40" x2="80" y2="600" stroke="#e5e7eb"/>
<polyline points="359.00,320.00 358.97,318.43 358.89,316.86 358.75,315.30 358.56,313.74 358.32,312.19 358.02,310.64 357.66,309.11 357.26,307.60 356.80,306.09 356.29,304.61 355.72,303.14 355.11,301.70 354.45,300.27 353.73,298.87 352.97,297.50 352.16,296.15 351.31,294.84 350.41,293.55 349.46,292.30 348.47,291.07 347.44,289.89 346.37,288.74 345.26,287.63 344.11,286.56 342.93,285.53 341.70,284.54 340.45,283.59 339.16,282.69 337.85,281.84 336.50,281.03 335.13,280.27 333.73,279.55 332.30,278.89 330.86,278.28 329.39,277.71 327.91,277.20 326.40,276.74 324.89,276.34 323.36,275.98 321.81,275.68 320.26,275.44 318.70,275.25 317.14,275.11 315.57,275.03 314.00,275.00 312.43,275.03 310.86,275.11 309.30,275.25 307.74,275.44 306.19,275.68 304.64,275.98 303.11,276.34 301.60,276.74 300.09,277.20 298.61,277.71 297.14,278.28 295.70,278.89 294.27,279.55 292.87,280.27 291.50,281.03 290.15,281.84 288.84,282.69 287.55,283.59 286.30,284.54 285.07,285.53 283.89,286.56 282.74,287.63 281.63,288.74 280.56,289.89 279.53,291.07 278.54,292.30 277.59,293.55 276.69,294.84 275.84,296.15 275.03,297.50 274.27,298.87 273.55,300.27 272.89,301.70 272.28,303.14 271.71,304.61 271.20,306.09 270.74,307.60 270.34,309.11 269.98,310.64 269.68,312.19 269.44,313.74 269.25,315.30 269.11,316.86 269.03,318.43 269.00,320.00 269.03,321.57 269.11,323.14 269.25,324.70 269.44,326.26 269.68,327.81 269.98,329.36 270.34,330.89 270.74,332.40 271.20,333.91 271.71,335.39 272.28,336.86 272.89,338.30 273.55,339.73 274.27,341.13 275.03,342.50 275.84,343.85 276.69,345.16 277.59,346.45 278.54,347.70 279.53,348.93 280.56,350.11 281.63,351.26 282.74,352.37 283.89,353.44 285.07,354.47 286.30,355.46 287.55,356.41 288.84,357.31 290.15,358.16 291.50,358.97 292.87,359.73 294.27,360.45 295.70,361.11 297.14,361.72 298.61,362.29 300.09,362.80 301.60,363.26 303.11,363.66 304.64,364.02 306.19,364.32 307.74,364.56 309.30,364.75 310.86,364.89 312.43,364.97 314.00,365.00 315.57,364.97 317.14,364.89 318.70,364.75 320.26,364.56 321.81,364.32 323.36,364.02 324.89,363.66 326.40,363.26 327.91,362.80 329.39,362.29 330.86,361.72 332.30,361.11 333.73,360.45 335.13,359.73 336.50,358.97 337.85,358.16 339.16,357.31 340.45,356.41 341.70,355.46 342.93,354.47 344.11,353.44 345.26,352.37 346.37,351.26 347.44,350.11 348.47,348.93 349.46,347.70 350.41,346.45 351.31,345.16 352.16,343.85 352.97,342.50 353.73,341.13 354.45,339.73 355.11,338.30 355.72,336.86 356.29,335.39 356.80,333.91 357.26,332.40 357.66,330.89 358.02,329.36 358.32,327.81 358.56,326.26 358.75,324.70 358.89,323.14 358.97,321.57 359.00,320.00" fill="none" stroke="#111827" stroke-width="4" stroke-linecap="round" stroke-linejoin="round"/>
<circle cx="359.00" cy="320.00" r="5" fill="#38bdf8"/>
</svg>